<svg width="24" height="25" viewBox="0 0 24 25" fill="none" xmlns="http://www.w3.org/2000/svg">
<g clip-path="url(#clip0_12_204)">
<path d="M20.317 4.44331C18.787 3.74131 17.147 3.22431 15.432 2.92831C15.401 2.92231 15.37 2.93731 15.353 2.96531C15.142 3.34031 14.908 3.83031 14.745 4.21431C12.9 3.93831 11.065 3.93831 9.25803 4.21431C9.09503 3.82131 8.85203 3.34031 8.64103 2.96531C8.62403 2.93731 8.59303 2.92331 8.56203 2.92831C6.84803 3.22331 5.20803 3.74031 3.67703 4.44331C3.66403 4.44831 3.65203 4.45831 3.64503 4.47031C0.534026 9.11831 -0.318974 13.6523 0.0990262 18.1303C0.101026 18.1523 0.113026 18.1733 0.130026 18.1863C2.18303 19.6943 4.17103 20.6093 6.12303 21.2153C6.15403 21.2253 6.18703 21.2133 6.20703 21.1873C6.66903 20.5573 7.08003 19.8923 7.43303 19.1933C7.45403 19.1523 7.43403 19.1033 7.39103 19.0873C6.73803 18.8393 6.11703 18.5373 5.51903 18.1953C5.47203 18.1673 5.46803 18.1003 5.51103 18.0673C5.63703 17.9733 5.76303 17.8753 5.88303 17.7763C5.90503 17.7583 5.93503 17.7543 5.96103 17.7663C9.88903 19.5593 14.141 19.5593 18.022 17.7663C18.048 17.7543 18.078 17.7573 18.101 17.7763C18.221 17.8753 18.347 17.9743 18.474 18.0683C18.518 18.1003 18.515 18.1683 18.467 18.1963C17.869 18.5453 17.248 18.8413 16.594 19.0873C16.551 19.1033 16.533 19.1533 16.553 19.1943C16.913 19.8923 17.325 20.5573 17.778 21.1873C17.797 21.2143 17.831 21.2253 17.862 21.2163C19.823 20.6093 21.812 19.6943 23.864 18.1873C23.882 18.1743 23.893 18.1543 23.895 18.1323C24.395 12.9553 23.057 8.45831 20.347 4.47231C20.342 4.45831 20.33 4.44831 20.317 4.44331ZM8.02003 15.4043C6.83703 15.4043 5.86303 14.3183 5.86303 12.9853C5.86303 11.6523 6.81803 10.5663 8.02003 10.5663C9.23103 10.5663 10.196 11.6613 10.177 12.9853C10.177 14.3193 9.22103 15.4043 8.02003 15.4043ZM15.995 15.4043C14.813 15.4043 13.838 14.3183 13.838 12.9853C13.838 11.6523 14.793 10.5663 15.995 10.5663C17.206 10.5663 18.171 11.6613 18.152 12.9853C18.152 14.3193 17.206 15.4043 15.995 15.4043Z" fill="black"/>
</g>
<defs>
<clipPath id="clip0_12_204">
<rect width="24" height="24" fill="white" transform="translate(0 0.0732422)"/>
</clipPath>
</defs>
</svg>
