<svg width="19" height="10" viewBox="0 0 19 10" fill="none" xmlns="http://www.w3.org/2000/svg">
<path d="M1.00662 -7.87126e-07C1.35265 -7.72001e-07 1.6043 0.141642 1.8245 0.368271C4.3096 2.74788 6.76324 5.12748 9.24834 7.50708C9.46854 7.73371 9.56291 7.70538 9.75165 7.50708C12.2368 5.09915 14.7219 2.71955 17.207 0.339943C17.5215 0.0566572 17.8675 -0.0566573 18.3079 0.0566572C18.6854 0.141643 18.9056 0.396601 19 0.793201C19.0629 1.13314 18.9056 1.3881 18.6854 1.61473C17.0811 3.14448 15.5083 4.67422 13.904 6.20397C12.7401 7.33711 11.5762 8.44193 10.4123 9.54674C9.78311 10.1416 9.24834 10.1416 8.6192 9.54674C5.88245 6.91218 3.17715 4.30595 0.440397 1.69972C0.157284 1.41643 -0.0629159 1.13314 0.062912 0.736543C0.125826 0.283285 0.503309 -8.09127e-07 1.00662 -7.87126e-07Z" fill="#323232"/>
</svg>
