<svg width="137" height="31" viewBox="0 0 137 31" fill="none" xmlns="http://www.w3.org/2000/svg">
<path d="M49.38 8.00968V10.7497H43.66V13.7097H47.94V16.3697H43.66V22.0497H40.24V8.00968H49.38ZM54.5975 7.24968V22.0497H51.1775V7.24968H54.5975ZM67.5959 16.2897C67.5959 16.6097 67.5759 16.943 67.5359 17.2897H59.7959C59.8493 17.983 60.0693 18.5163 60.4559 18.8897C60.8559 19.2497 61.3426 19.4297 61.9159 19.4297C62.7693 19.4297 63.3626 19.0697 63.6959 18.3497H67.3359C67.1493 19.083 66.8093 19.743 66.3159 20.3297C65.8359 20.9163 65.2293 21.3763 64.4959 21.7097C63.7626 22.043 62.9426 22.2097 62.0359 22.2097C60.9426 22.2097 59.9693 21.9763 59.1159 21.5097C58.2626 21.043 57.5959 20.3763 57.1159 19.5097C56.6359 18.643 56.3959 17.6297 56.3959 16.4697C56.3959 15.3097 56.6293 14.2963 57.0959 13.4297C57.5759 12.563 58.2426 11.8963 59.0959 11.4297C59.9493 10.963 60.9293 10.7297 62.0359 10.7297C63.1159 10.7297 64.0759 10.9563 64.9159 11.4097C65.7559 11.863 66.4093 12.5097 66.8759 13.3497C67.3559 14.1897 67.5959 15.1697 67.5959 16.2897ZM64.0959 15.3897C64.0959 14.803 63.8959 14.3363 63.4959 13.9897C63.0959 13.643 62.5959 13.4697 61.9959 13.4697C61.4226 13.4697 60.9359 13.6363 60.5359 13.9697C60.1493 14.303 59.9093 14.7763 59.8159 15.3897H64.0959ZM76.0002 22.0497L73.8602 18.9497L72.0602 22.0497H68.3602L72.0402 16.3497L68.2602 10.8897H72.1002L74.2402 13.9697L76.0402 10.8897H79.7402L76.0002 16.5097L79.8402 22.0497H76.0002ZM90.298 8.00968V10.7497H84.578V13.7097H88.858V16.3697H84.578V22.0497H81.158V8.00968H90.298ZM97.1755 22.2097C96.0821 22.2097 95.0955 21.9763 94.2155 21.5097C93.3488 21.043 92.6621 20.3763 92.1555 19.5097C91.6621 18.643 91.4155 17.6297 91.4155 16.4697C91.4155 15.323 91.6688 14.3163 92.1755 13.4497C92.6821 12.5697 93.3755 11.8963 94.2555 11.4297C95.1355 10.963 96.1221 10.7297 97.2155 10.7297C98.3088 10.7297 99.2955 10.963 100.175 11.4297C101.055 11.8963 101.749 12.5697 102.255 13.4497C102.762 14.3163 103.015 15.323 103.015 16.4697C103.015 17.6163 102.755 18.6297 102.235 19.5097C101.729 20.3763 101.029 21.043 100.135 21.5097C99.2555 21.9763 98.2688 22.2097 97.1755 22.2097ZM97.1755 19.2497C97.8288 19.2497 98.3821 19.0097 98.8355 18.5297C99.3021 18.0497 99.5355 17.363 99.5355 16.4697C99.5355 15.5763 99.3088 14.8897 98.8555 14.4097C98.4155 13.9297 97.8688 13.6897 97.2155 13.6897C96.5488 13.6897 95.9955 13.9297 95.5555 14.4097C95.1155 14.8763 94.8955 15.563 94.8955 16.4697C94.8955 17.363 95.1088 18.0497 95.5355 18.5297C95.9755 19.0097 96.5221 19.2497 97.1755 19.2497ZM108.25 12.7497C108.65 12.1363 109.15 11.6563 109.75 11.3097C110.35 10.9497 111.017 10.7697 111.75 10.7697V14.3897H110.81C109.957 14.3897 109.317 14.5763 108.89 14.9497C108.463 15.3097 108.25 15.9497 108.25 16.8697V22.0497H104.83V10.8897H108.25V12.7497ZM112.705 16.4697C112.705 15.3097 112.938 14.2963 113.405 13.4297C113.885 12.563 114.545 11.8963 115.385 11.4297C116.238 10.963 117.211 10.7297 118.305 10.7297C119.705 10.7297 120.871 11.0963 121.805 11.8297C122.751 12.563 123.371 13.5963 123.665 14.9297H120.025C119.718 14.0763 119.125 13.6497 118.245 13.6497C117.618 13.6497 117.118 13.8963 116.745 14.3897C116.371 14.8697 116.185 15.563 116.185 16.4697C116.185 17.3763 116.371 18.0763 116.745 18.5697C117.118 19.0497 117.618 19.2897 118.245 19.2897C119.125 19.2897 119.718 18.863 120.025 18.0097H123.665C123.371 19.3163 122.751 20.343 121.805 21.0897C120.858 21.8363 119.691 22.2097 118.305 22.2097C117.211 22.2097 116.238 21.9763 115.385 21.5097C114.545 21.043 113.885 20.3763 113.405 19.5097C112.938 18.643 112.705 17.6297 112.705 16.4697ZM136.014 16.2897C136.014 16.6097 135.994 16.943 135.954 17.2897H128.214C128.267 17.983 128.487 18.5163 128.874 18.8897C129.274 19.2497 129.761 19.4297 130.334 19.4297C131.187 19.4297 131.781 19.0697 132.114 18.3497H135.754C135.567 19.083 135.227 19.743 134.734 20.3297C134.254 20.9163 133.647 21.3763 132.914 21.7097C132.181 22.043 131.361 22.2097 130.454 22.2097C129.361 22.2097 128.387 21.9763 127.534 21.5097C126.681 21.043 126.014 20.3763 125.534 19.5097C125.054 18.643 124.814 17.6297 124.814 16.4697C124.814 15.3097 125.047 14.2963 125.514 13.4297C125.994 12.563 126.661 11.8963 127.514 11.4297C128.367 10.963 129.347 10.7297 130.454 10.7297C131.534 10.7297 132.494 10.9563 133.334 11.4097C134.174 11.863 134.827 12.5097 135.294 13.3497C135.774 14.1897 136.014 15.1697 136.014 16.2897ZM132.514 15.3897C132.514 14.803 132.314 14.3363 131.914 13.9897C131.514 13.643 131.014 13.4697 130.414 13.4697C129.841 13.4697 129.354 13.6363 128.954 13.9697C128.567 14.303 128.327 14.7763 128.234 15.3897H132.514Z" fill="#323232"/>
<circle cx="13" cy="15.0497" r="13" fill="#5C3FC6"/>
<path d="M13 8.04968L19.0622 18.5497H6.93782L13 8.04968Z" fill="white"/>
</svg>
