<svg width="24" height="40" viewBox="0 0 24 40" fill="none" xmlns="http://www.w3.org/2000/svg">
<path d="M0.601069 37.0616C0.601069 36.367 0.919629 35.8618 1.42932 35.4198C6.78113 30.4312 12.1329 25.5058 17.4847 20.5173C17.9944 20.0752 17.9307 19.8858 17.4847 19.5069C12.0692 14.5184 6.71742 9.52979 1.36562 4.54122C0.728498 3.90976 0.47365 3.21515 0.728498 2.3311C0.919634 1.57334 1.49304 1.13132 2.38501 0.941881C3.14955 0.815588 3.72296 1.13132 4.23265 1.57334C7.6731 4.79381 11.1135 7.95113 14.554 11.1716C17.1025 13.508 19.5872 15.8444 22.072 18.1808C23.4099 19.4438 23.4099 20.5173 22.072 21.7802C16.1468 27.2739 10.2853 32.7045 4.42378 38.1982C3.78667 38.7666 3.14955 39.2086 2.25758 38.956C1.23819 38.8297 0.601069 38.0719 0.601069 37.0616Z" fill="#323232"/>
</svg>
