<svg width="39" height="37" viewBox="0 0 39 37" fill="none" xmlns="http://www.w3.org/2000/svg">
<path d="M38.3278 35.1183C38.3278 32.7414 38.3278 30.3645 38.3278 27.9876C37.9877 27.0468 37.3559 26.7001 36.4327 26.7001C35.9467 26.7001 35.5094 26.5516 35.0721 26.304C34.003 25.7098 33.3713 24.6699 32.9339 23.5309C32.205 21.5997 32.0107 19.619 31.9135 17.5887C31.9135 17.2421 32.0107 17.1926 32.3022 17.1926C33.76 17.1926 35.2178 17.1926 36.6756 17.1926C37.5503 17.1926 37.9877 16.8459 38.3278 16.0536C38.3278 16.0041 38.3764 16.0041 38.3764 15.9546C38.3764 11.2008 38.3764 6.44703 38.3764 1.64373C38.0363 0.752392 37.3559 0.405762 36.3841 0.405762C32.205 0.45528 28.0746 0.405762 23.8956 0.405762C23.7498 0.405762 23.604 0.405762 23.4582 0.405762C22.535 0.504799 22.0004 1.14854 22.0004 2.23795C22.0004 6.49655 22.0004 10.7056 22.0004 14.9642C22.0004 16.8954 22.049 18.8267 22.3406 20.7579C22.7293 23.5805 23.3611 26.304 24.7217 28.8294C27.2485 33.5337 31.0388 36.1582 36.3355 36.3562C37.5017 36.4058 37.8419 36.1582 38.3278 35.1183Z" fill="#C4C4C4"/>
<path d="M0.327785 10.557C0.376378 12.6368 0.279191 15.1623 0.376378 17.6877C0.570751 21.253 1.10528 24.7689 2.61167 28.0371C4.06947 31.1568 6.15899 33.5832 9.22037 35.1182C11.0669 36.0096 13.0592 36.4057 15.1002 36.3562C15.9263 36.3562 16.6066 35.7125 16.6066 34.8706C16.6552 32.6423 16.6552 30.4635 16.6066 28.2352C16.6066 27.3933 16.0234 26.7991 15.1974 26.7496C13.7881 26.7001 12.6705 26.1059 11.893 24.9174C11.5043 24.3232 11.2127 23.6299 10.9697 22.9367C10.3866 21.154 10.1922 19.3218 10.1436 17.4401C10.1436 17.143 10.2894 17.143 10.4838 17.143C11.9416 17.143 13.3994 17.143 14.8572 17.143C15.1488 17.143 15.4403 17.143 15.7319 16.9944C16.3636 16.6973 16.6552 16.1526 16.6552 15.4594C16.6552 11.0027 16.6552 6.54602 16.6552 2.08935C16.6552 0.999943 16.0234 0.356201 14.9544 0.356201C10.6782 0.356201 6.35336 0.356201 2.07715 0.356201C0.959498 0.356201 0.327785 0.999943 0.327785 2.13887C0.327785 4.86239 0.327785 7.48688 0.327785 10.557Z" fill="#C4C4C4"/>
</svg>
