<svg width="39" height="37" viewBox="0 0 39 37" fill="none" xmlns="http://www.w3.org/2000/svg">
<path d="M0.327829 34.8068C0.327829 32.4299 0.327829 30.053 0.327829 27.6761C0.667983 26.7352 1.2997 26.3886 2.22297 26.3886C2.7089 26.3886 3.14624 26.24 3.58358 25.9925C4.65264 25.3982 5.28435 24.3583 5.72169 23.2194C6.45059 21.2882 6.64497 19.3074 6.74215 17.2772C6.74215 16.9306 6.64497 16.881 6.35341 16.881C4.8956 16.881 3.4378 16.881 1.98 16.881C1.10532 16.881 0.667983 16.5344 0.327829 15.7421C0.327829 15.6926 0.279236 15.6926 0.279236 15.6431C0.279236 10.8893 0.279236 6.1355 0.279236 1.3322C0.619389 0.440868 1.2997 0.0942383 2.27156 0.0942383C6.45059 0.143757 10.581 0.0942383 14.7601 0.0942383C14.9058 0.0942383 15.0516 0.0942383 15.1974 0.0942383C16.1207 0.193275 16.6552 0.837017 16.6552 1.92643C16.6552 6.18502 16.6552 10.3941 16.6552 14.6527C16.6552 16.5839 16.6066 18.5151 16.315 20.4464C15.9263 23.2689 15.2946 25.9925 13.934 28.5179C11.4071 33.2222 7.61683 35.8466 2.32016 36.0447C1.15392 36.0942 0.813763 35.8466 0.327829 34.8068Z" fill="#C4C4C4"/>
<path d="M38.3278 10.2455C38.2792 12.3253 38.3764 14.8507 38.2792 17.3762C38.0849 20.9415 37.5503 24.4573 36.0439 27.7256C34.5861 30.8452 32.4966 33.2716 29.4352 34.8067C27.5887 35.698 25.5964 36.0942 23.5554 36.0447C22.7294 36.0447 22.0491 35.4009 22.0491 34.5591C22.0005 32.3308 22.0005 30.152 22.0491 27.9236C22.0491 27.0818 22.6322 26.4876 23.4583 26.4381C24.8675 26.3886 25.9851 25.7943 26.7626 24.6059C27.1514 24.0117 27.4429 23.3184 27.6859 22.6251C28.269 20.8425 28.4634 19.0103 28.512 17.1286C28.512 16.8315 28.3662 16.8315 28.1718 16.8315C26.714 16.8315 25.2562 16.8315 23.7984 16.8315C23.5069 16.8315 23.2153 16.8315 22.9237 16.6829C22.292 16.3858 22.0005 15.8411 22.0005 15.1478C22.0005 10.6912 22.0005 6.2345 22.0005 1.77783C22.0005 0.688419 22.6322 0.0446777 23.7012 0.0446777C27.9774 0.0446777 32.3022 0.0446777 36.5785 0.0446777C37.6961 0.0446777 38.3278 0.688419 38.3278 1.82735C38.3278 4.55087 38.3278 7.17535 38.3278 10.2455Z" fill="#C4C4C4"/>
</svg>
