<?xml version="1.0" encoding="UTF-8"?>
<svg id="Layer_2" data-name="Layer 2" xmlns="http://www.w3.org/2000/svg" xmlns:xlink="http://www.w3.org/1999/xlink" viewBox="0 0 350.71 169">
  <defs>
    <style>
      .cls-1 {
        fill: #fff;
      }

      .cls-2 {
        fill: #eceff1;
      }

      .cls-3 {
        fill: #ed7445;
      }

      .cls-4 {
        clip-path: url(#clippath);
      }

      .cls-5 {
        fill: #e3ebff;
      }

      .cls-6 {
        fill: none;
      }

      .cls-7 {
        fill: #dde7ef;
      }

      .cls-8 {
        fill: #bcccfd;
      }

      .cls-9 {
        fill: #516092;
      }

      .cls-10 {
        fill: #d4e0ff;
        isolation: isolate;
        opacity: .5;
      }
    </style>
    <clipPath id="clippath">
      <rect class="cls-6" x="43.71" width="307" height="169"/>
    </clipPath>
  </defs>
  <g id="Layer_2-2" data-name="Layer 2">
    <g id="Layer_1-2" data-name="Layer 1-2">
      <g>
        <path class="cls-7" d="M335.31,99.91c0,19.08-7.73,36.35-20.23,48.85s-29.78,20.24-48.86,20.24H0V30.82H266.22c38.16,0,69.09,30.93,69.09,69.09Z"/>
        <g class="cls-4">
          <g>
            <path class="cls-10" d="M132.49,91.97h-38.62v67.12h94.58V42.13h-55.95v49.84h-.01Z"/>
            <path class="cls-9" d="M293.76,157.1H43.71v1.15h250.04v-1.15h.01Z"/>
            <path class="cls-8" d="M245.88,58.55H110.98v106.13H245.88V58.55Z"/>
            <path class="cls-1" d="M245.88,70.52H110.98v94.09H245.88V70.52Z"/>
            <path class="cls-1" d="M115.79,66.27c1.09,0,1.98-.89,1.98-1.98s-.89-1.98-1.98-1.98-1.98,.89-1.98,1.98,.89,1.98,1.98,1.98Z"/>
            <path class="cls-1" d="M126.12,64.29c0,1.06-.85,1.98-1.98,1.98-1.06,0-1.98-.85-1.98-1.98,0-1.06,.85-1.98,1.98-1.98s1.98,.92,1.98,1.98Z"/>
            <path class="cls-1" d="M134.54,64.29c0,1.06-.85,1.98-1.98,1.98-1.06,0-1.98-.85-1.98-1.98,0-1.06,.85-1.98,1.98-1.98,1.06,0,1.98,.92,1.98,1.98Z"/>
            <path class="cls-1" d="M199.48,67.83h-55.53c-1.84,0-3.4-1.49-3.4-3.4s1.49-3.4,3.4-3.4h55.53c1.84,0,3.4,1.49,3.4,3.4-.07,1.91-1.56,3.4-3.4,3.4Z"/>
            <path class="cls-1" d="M237.67,67.83h-26.31c-1.84,0-3.4-1.49-3.4-3.4s1.49-3.4,3.4-3.4h26.31c1.84,0,3.4,1.49,3.4,3.4-.07,1.91-1.56,3.4-3.4,3.4Z"/>
            <path class="cls-8" d="M169.7,112.5h-47.96v27.12h47.96s0-27.12,0-27.12Z"/>
            <path class="cls-8" d="M169.7,79.23h-47.96v27.12h47.96v-27.12Z"/>
            <path class="cls-8" d="M169.34,146.42h-47.18v2.12h47.18v-2.12Z"/>
            <path class="cls-8" d="M169.34,153.5h-47.18v2.12h47.18v-2.12Z"/>
            <path class="cls-8" d="M233.5,146.42h-47.18v2.12h47.18v-2.12Z"/>
            <path class="cls-8" d="M233.5,153.5h-47.18v2.12h47.18v-2.12Z"/>
            <path class="cls-9" d="M246.59,165.39H110.28V57.84H246.59v107.55Zm-134.9-1.42H245.17V59.26H111.69v104.71Z"/>
            <path class="cls-9" d="M278.91,149.39h-13.87V32.78h13.87v116.61Zm-12.45-1.42h11.03V34.2h-11.03v113.78h0Z"/>
            <path class="cls-8" d="M280.82,142.66h-17.61v12.67h17.61v-12.67Z"/>
            <path class="cls-9" d="M278.28,135.94h-12.24c-.28,0-.57-.14-.64-.43-.14-.28-.07-.57,.14-.78l11.81-12.74,1.06,.99-10.75,11.54h10.61v1.42h.01Z"/>
            <path class="cls-9" d="M278.28,123.19h-12.24c-.28,0-.57-.14-.64-.42-.14-.28-.07-.57,.14-.78l11.81-12.74,1.06,.99-10.75,11.54h10.61v1.42h.01Z"/>
            <path class="cls-9" d="M278.28,110.38h-12.24c-.28,0-.57-.14-.64-.42-.14-.28-.07-.57,.14-.78l11.81-12.74,1.06,.99-10.68,11.54h10.61v1.42h-.06Z"/>
            <path class="cls-9" d="M278.28,97.63h-12.24c-.28,0-.57-.14-.64-.42-.14-.28-.07-.57,.14-.78l11.81-12.74,1.06,.99-10.68,11.54h10.61v1.42h-.06Z"/>
            <path class="cls-9" d="M278.28,84.89h-12.24c-.28,0-.57-.14-.64-.42-.14-.28-.07-.57,.14-.78l11.81-12.74,1.06,.99-10.68,11.54h10.61v1.42h-.06Z"/>
            <path class="cls-9" d="M278.28,72.07h-12.24c-.28,0-.57-.14-.64-.42-.14-.28-.07-.57,.14-.78l11.81-12.74,1.06,.99-10.68,11.54h10.61v1.42h-.06Z"/>
            <path class="cls-9" d="M278.28,59.33h-12.24c-.28,0-.57-.14-.64-.42-.14-.28-.07-.57,.14-.78l11.81-12.74,1.06,.99-10.68,11.54h10.61v1.42h-.06Z"/>
            <path class="cls-9" d="M278.28,46.59h-12.24c-.28,0-.57-.14-.64-.42-.14-.28-.07-.57,.14-.78l11.81-12.74,1.06,.99-10.68,11.54h10.61v1.42h-.06Z"/>
            <path class="cls-3" d="M278.91,27.9h-22.42v18.9h22.42V27.9Z"/>
            <path class="cls-3" d="M312.59,27.9h-22.42v10.9h22.42v-10.9Z"/>
            <path class="cls-9" d="M312.23,29.24h-110.84c-.43,0-.71-.28-.71-.71s.28-.71,.71-.71h110.84c.43,0,.71,.28,.71,.71s-.28,.71-.71,.71Z"/>
            <path class="cls-9" d="M207.26,31.86h-.71v46.02h.71V31.86Z"/>
            <path class="cls-9" d="M286.84,153h-29.64v5.59h29.64v-5.59h0Z"/>
            <path class="cls-9" d="M267.74,29.1c-.07,0-.21,0-.28-.07l-5.94-5.95h-54.18l-5.59,5.59c-.14,.14-.35,.14-.49,0-.14-.14-.14-.35,0-.5l5.73-5.73h54.75l6.08,6.09c.14,.14,.14,.35,0,.5,.14,0,.07,.07-.07,.07h-.01Z"/>
            <path class="cls-9" d="M312.73,29.1c-.14,0-.28-.07-.28-.21l-5.94-11.33h-14.36l-5.59,10.97c-.07,.14-.28,.21-.49,.14-.14-.07-.21-.28-.14-.5l5.73-11.33h15.21l6.08,11.68c.07,.14,0,.35-.14,.5,0,.05-.02,.07-.07,.07h0Z"/>
            <path class="cls-8" d="M209.52,31.86c0,1.42-1.13,2.62-2.62,2.62s-2.62-1.13-2.62-2.62,1.13-2.62,2.62-2.62,2.62,1.2,2.62,2.62Z"/>
            <path class="cls-8" d="M234.59,76.98l-59.24,5.48,2.82,30.53,59.24-5.48-2.82-30.53Z"/>
            <path class="cls-9" d="M222.25,23.08c-.14,0-.28-.07-.35-.28-.07-.21,.07-.35,.21-.42l52.35-16h.21l24.83,10.48c.21,.07,.28,.28,.21,.5-.07,.21-.28,.28-.5,.21l-24.62-10.48-52.27,15.93s-.02,.07-.07,.07h0Z"/>
            <path class="cls-9" d="M266.39,29.1c-.07,0-.14,0-.28-.07-.35-.14-.57-.57-.42-.92l8.28-21.74c.14-.28,.42-.5,.71-.42,.28,0,.57,.28,.64,.57l4.24,21.17c.07,.35-.14,.78-.57,.85-.35,.07-.78-.14-.85-.57l-3.75-18.76-7.36,19.4c-.07,.35-.35,.5-.64,.5h0Z"/>
            <path class="cls-8" d="M276.08,6.73c0,.78-.64,1.42-1.41,1.42s-1.41-.64-1.41-1.42,.64-1.42,1.41-1.42c.78-.07,1.41,.57,1.41,1.42Z"/>
            <path class="cls-9" d="M214.83,29.17c-.07,0-.14,0-.21-.07l-6.93-5.59v5.24c0,.21-.14,.35-.35,.35s-.35-.14-.35-.35v-6.02c0-.14,.07-.28,.21-.35,.14-.07,.28-.07,.35,.07l7.5,6.09c.14,.14,.14,.35,.07,.5-.07,.07-.21,.14-.28,.14h-.01Z"/>
            <path class="cls-9" d="M221.55,29.17c-.07,0-.14,0-.21-.07l-6.93-5.59v5.24c0,.21-.14,.35-.35,.35s-.35-.14-.35-.35v-6.02c0-.14,.07-.28,.21-.35,.14-.07,.28-.07,.35,.07l7.5,6.09c.14,.14,.14,.35,.07,.5-.14,.07-.21,.14-.28,.14h-.01Z"/>
            <path class="cls-9" d="M228.27,29.17c-.07,0-.14,0-.21-.07l-6.93-5.59v5.24c0,.21-.14,.35-.35,.35s-.35-.14-.35-.35v-6.02c0-.14,.07-.28,.21-.35,.14-.07,.28-.07,.35,.07l7.5,6.09c.14,.14,.14,.35,.07,.5-.14,.07-.21,.14-.28,.14h-.01Z"/>
            <path class="cls-9" d="M234.99,29.17c-.07,0-.14,0-.21-.07l-6.93-5.59v5.24c0,.21-.14,.35-.35,.35s-.35-.14-.35-.35v-6.02c0-.14,.07-.28,.21-.35,.14-.07,.28-.07,.35,.07l7.5,6.09c.14,.14,.14,.35,.07,.5-.14,.07-.21,.14-.28,.14h-.01Z"/>
            <path class="cls-9" d="M241.64,29.17c-.07,0-.14,0-.21-.07l-6.93-5.59v5.24c0,.21-.14,.35-.35,.35s-.35-.14-.35-.35v-6.02c0-.14,.07-.28,.21-.35,.14-.07,.28-.07,.35,.07l7.5,6.09c.14,.14,.14,.35,.07,.5-.07,.07-.14,.14-.28,.14h-.01Z"/>
            <path class="cls-9" d="M248.36,29.17c-.07,0-.14,0-.21-.07l-6.93-5.59v5.24c0,.21-.14,.35-.35,.35s-.35-.14-.35-.35v-6.02c0-.14,.07-.28,.21-.35,.14-.07,.28-.07,.35,.07l7.5,6.09c.14,.14,.14,.35,.07,.5-.07,.07-.14,.14-.28,.14h-.01Z"/>
            <path class="cls-9" d="M255.08,29.17c-.07,0-.14,0-.21-.07l-6.93-5.59v5.24c0,.21-.14,.35-.35,.35s-.35-.14-.35-.35v-6.02c0-.14,.07-.28,.21-.35,.14-.07,.28-.07,.35,.07l7.5,6.09c.14,.14,.14,.35,.07,.5-.07,.07-.14,.14-.28,.14h-.01Z"/>
            <path class="cls-9" d="M261.8,29.17c-.07,0-.14,0-.21-.07l-6.93-5.59v5.24c0,.21-.14,.35-.35,.35s-.35-.14-.35-.35v-6.02c0-.14,.07-.28,.21-.35,.14-.07,.28-.07,.35,.07l7.5,6.09c.14,.14,.14,.35,.07,.5-.07,.07-.14,.14-.28,.14h-.01Z"/>
            <path class="cls-9" d="M301.55,29.17c-.07,0-.21-.07-.28-.14l-9.05-10.69v10.34c0,.21-.14,.35-.35,.35s-.35-.14-.35-.35v-11.33c0-.14,.07-.28,.21-.35,.14-.07,.28,0,.43,.07l9.62,11.4c.14,.14,.14,.35-.07,.5,0,.14-.07,.21-.14,.21h-.02Z"/>
            <path class="cls-9" d="M308.48,29.17c-.14,0-.21-.07-.28-.14l-6.86-10.41v10.12c0,.21-.14,.35-.35,.35s-.35-.14-.35-.35v-11.33c0-.14,.07-.28,.28-.35,.14-.07,.28,0,.43,.14l7.5,11.4c.14,.14,.07,.35-.07,.5-.14,0-.21,.07-.28,.07h-.02Z"/>
            <path class="cls-3" d="M209.17,78.8c0,1.2-.99,2.19-2.19,2.19s-2.19-.99-2.19-2.19,.99-2.19,2.19-2.19,2.19,.99,2.19,2.19Z"/>
            <path class="cls-9" d="M87.64,123.33h-1.41v33.98h1.41v-33.98Z"/>
            <path class="cls-9" d="M60.76,123.33h-1.41v33.98h1.41v-33.98Z"/>
            <path class="cls-5" d="M91.32,126.52H55.81v13.1h35.51v-13.1Z"/>
            <path class="cls-3" d="M91.32,139.62v-12.39l-6.51,12.39h6.51Z"/>
            <path class="cls-3" d="M68.9,139.62h7.57l6.93-13.1h-7.57l-6.93,13.1Z"/>
            <path class="cls-3" d="M59.91,126.52l-4.1,7.72v5.38h4.74l6.93-13.1h-7.57Z"/>
            <path class="cls-9" d="M92.95,147.41H54.04v1.42h38.91v-1.42Z"/>
            <path class="cls-3" d="M108.44,167.09h-16.13c-.57,0-.99,.43-.99,.99s.42,.99,.99,.99h16.13c.57,0,.99-.42,.99-.99s-.5-.99-.99-.99Z"/>
            <path class="cls-3" d="M101.72,153.35c-.07-.21-.28-.35-.5-.35h-1.84c-.21,0-.42,.14-.5,.35l-5.23,14.87h13.44l-5.38-14.87h0Z"/>
            <path class="cls-2" d="M97.9,156.11l-.85,2.34h6.51l-.85-2.34h-4.81Z"/>
            <path class="cls-2" d="M95.78,162.13l-.78,2.34h10.75l-.85-2.34h-9.12Z"/>
            <path class="cls-10" d="M106.03,41.7c-1.2,0-2.26,.35-3.18,.99v-1.56c0-4.53-3.61-8.14-8.13-8.14s-8.13,3.61-8.13,8.14v3.04c-.71-.71-1.7-1.13-2.83-1.13-2.26,0-4.1,1.84-4.1,4.11h31.9c0-2.97-2.48-5.45-5.52-5.45h0Z"/>
          </g>
        </g>
      </g>
    </g>
  </g>
</svg>