<?xml version="1.0" encoding="UTF-8"?>
<svg id="Layer_2" data-name="Layer 2" xmlns="http://www.w3.org/2000/svg" xmlns:xlink="http://www.w3.org/1999/xlink" viewBox="0 0 257 194.02">
  <defs>
    <style>
      .cls-1, .cls-2 {
        fill: #fff;
      }

      .cls-3 {
        opacity: .26;
      }

      .cls-4, .cls-5 {
        opacity: .36;
      }

      .cls-6 {
        clip-path: url(#clippath);
      }

      .cls-7 {
        fill: none;
      }

      .cls-8 {
        fill: #4c65ba;
      }

      .cls-2 {
        opacity: .43;
      }

      .cls-2, .cls-5 {
        isolation: isolate;
      }

      .cls-9 {
        fill: #faced4;
      }

      .cls-10 {
        opacity: .57;
      }

      .cls-11 {
        fill: #f7a9b4;
      }

      .cls-12 {
        fill: #3e479b;
      }

      .cls-13, .cls-5 {
        fill: #599af2;
      }
    </style>
    <clipPath id="clippath">
      <rect class="cls-7" x="71.87" y=".02" width="101" height="194"/>
    </clipPath>
  </defs>
  <g id="Layer_2-2" data-name="Layer 2">
    <g id="Layer_1-2" data-name="Layer 1-2">
      <g>
        <path class="cls-9" d="M257,0V138.18H69.09C30.93,138.18,0,107.25,0,69.09,0,50.01,7.73,32.74,20.24,20.24,32.74,7.73,50.01,0,69.09,0h187.91Z"/>
        <g class="cls-6">
          <g>
            <path class="cls-8" d="M72.54,9.56V184.62c0,4.04,2.58,7.55,6.16,8.88,1.06,.4,2.19,.6,3.31,.6h81.25c1.99,0,3.84-.6,5.37-1.66,2.52-1.72,4.11-4.57,4.11-7.82l-.07-174.99c0-2.91-1.33-5.5-3.38-7.29-1.52-1.46-3.65-2.32-5.96-2.32L82.01,.09c-5.24,0-9.48,4.24-9.48,9.47h.01Z"/>
            <path class="cls-12" d="M73.27,12.87V182.23c0,3.91,2.52,7.29,6.1,8.61,.99,.4,2.12,.6,3.31,.6h80.19c1.99,0,3.78-.6,5.3-1.59,2.45-1.66,4.04-4.44,4.04-7.55l-.07-169.3c0-2.85-1.33-5.37-3.31-7.02-1.66-1.32-3.71-2.12-6.03-2.12l-80.19-.2c-5.17,0-9.34,4.11-9.34,9.21Z"/>
            <path class="cls-1" d="M167.57,26.72l.07,140.62c0,1.26-.99,2.25-2.25,2.25l-85.23,.07c-1.26,0-2.25-.99-2.25-2.25l-.13-140.68c0-1.26,.99-2.25,2.25-2.25l85.29-.07c1.26,0,2.25,1.06,2.25,2.32h0Z"/>
            <path class="cls-13" d="M167.57,26.65v9.14H77.77v-9.21c0-1.19,.99-2.19,2.19-2.19l85.36-.07c1.26,0,2.25,1.06,2.25,2.32h0Z"/>
            <path class="cls-1" d="M156.5,28.77c-.2,0-.33-.13-.33-.33s.13-.33,.33-.33h6.76c.2,0,.33,.13,.33,.33s-.13,.33-.33,.33h-6.76Z"/>
            <path class="cls-1" d="M156.5,30.49c-.2,0-.33-.13-.33-.33s.13-.33,.33-.33h6.76c.2,0,.33,.13,.33,.33s-.13,.33-.33,.33h-6.76Z"/>
            <path class="cls-1" d="M156.5,32.21c-.2,0-.33-.13-.33-.33s.13-.33,.33-.33h6.76c.2,0,.33,.13,.33,.33s-.13,.33-.33,.33h-6.76Z"/>
            <path class="cls-1" d="M85.79,33.34c-.07,0-.2,0-.27-.07l-2.39-2.52c-.2-.2-.2-.53,0-.79l2.32-2.38c.13-.13,.33-.13,.46,0s.13,.33,0,.46l-2.25,2.25,2.39,2.38c.13,.13,.13,.33,0,.46-.07,.13-.13,.2-.27,.2h0Z"/>
            <path class="cls-1" d="M122.77,15.99c-1.33,0-2.45-1.06-2.45-2.45s1.06-2.45,2.45-2.45,2.45,1.06,2.45,2.45-1.13,2.45-2.45,2.45Zm0-3.84c-.8,0-1.39,.6-1.39,1.39s.6,1.39,1.39,1.39c.4,0,.73-.13,.99-.4,.26-.26,.4-.6,.4-.99s-.13-.73-.4-.99c-.27-.2-.6-.4-.99-.4Z"/>
            <path class="cls-1" d="M120.45,187.07c-.86,0-1.59-.73-1.59-1.59v-4.64c0-.86,.73-1.59,1.59-1.59h4.64c.86,0,1.59,.73,1.59,1.59v4.64c0,.86-.73,1.59-1.59,1.59h-4.64Zm4.64-7.02h-4.64c-.46,0-.93,.4-.93,.93v4.64c0,.46,.4,.93,.93,.93h4.64c.46,0,.93-.4,.93-.93v-4.64c-.07-.53-.46-.93-.93-.93Z"/>
            <path class="cls-1" d="M92.68,180.78c-.2,0-.33-.13-.33-.33s.13-.33,.33-.33h4.44c.2,0,.33,.13,.33,.33s-.13,.33-.33,.33h-4.44Z"/>
            <path class="cls-1" d="M92.68,183.16c-.2,0-.33-.13-.33-.33s.13-.33,.33-.33h4.44c.2,0,.33,.13,.33,.33s-.13,.33-.33,.33h-4.44Z"/>
            <path class="cls-1" d="M92.68,185.61c-.2,0-.33-.13-.33-.33s.13-.33,.33-.33h4.44c.2,0,.33,.13,.33,.33s-.13,.33-.33,.33h-4.44Z"/>
            <path class="cls-1" d="M153.92,187.07c-.07,0-.2,0-.27-.07l-3.51-3.51,3.38-3.38c.13-.13,.33-.13,.46,0s.13,.33,0,.46l-2.92,2.92,3.05,3.05c.13,.13,.13,.33,0,.46,0,.07-.13,.07-.2,.07h0Z"/>
            <path class="cls-5" d="M167.64,35.92H77.97v29.34h89.67s0-29.34,0-29.34Z"/>
            <path class="cls-2" d="M118.4,49.1h-32.21c-.53,0-.93-.4-.93-.93v-5.43c0-.53,.4-.93,.93-.93h32.21c.53,0,.93,.4,.93,.93v5.43c0,.53-.4,.93-.93,.93Z"/>
            <path class="cls-2" d="M136.09,56.79h-49.9c-.53,0-.93-.4-.93-.93v-1.79c0-.53,.4-.93,.93-.93h49.9c.53,0,.93,.4,.93,.93v1.79c0,.53-.4,.93-.93,.93Z"/>
            <path class="cls-2" d="M156.57,56.19c-1.86,0-3.58-.73-4.84-1.99-1.33-1.32-1.99-3.05-1.99-4.84s.73-3.58,1.99-4.84c1.33-1.32,3.05-1.99,4.84-1.99s3.58,.73,4.84,1.99c1.33,1.32,1.99,3.05,1.99,4.84s-.73,3.58-1.99,4.84c-1.26,1.26-3.05,1.99-4.84,1.99Zm0-12.39c-1.46,0-2.92,.6-3.91,1.66-1.06,1.06-1.66,2.45-1.66,3.91s.6,2.85,1.66,3.91,2.45,1.66,3.91,1.66,2.85-.6,3.91-1.66,1.66-2.45,1.66-3.91-.6-2.85-1.66-3.91c-1.06-1.13-2.45-1.66-3.91-1.66Z"/>
            <path class="cls-8" d="M103.75,96.72h-14.85c-1.66,0-3.05-1.32-3.05-3.05v-14.84c0-1.66,1.33-3.05,3.05-3.05h14.85c1.66,0,3.05,1.32,3.05,3.05v14.84c-.07,1.72-1.39,3.05-3.05,3.05Z"/>
            <g class="cls-4">
              <path class="cls-13" d="M100.84,86.46c0,2.52-1.99,4.5-4.51,4.5s-4.51-1.99-4.51-4.5,1.99-4.5,4.51-4.5,4.51,1.99,4.51,4.5Z"/>
            </g>
            <g class="cls-3">
              <path class="cls-12" d="M122.84,82.88h-11.73c-.4,0-.73-.33-.73-.73v-2.25c0-.4,.33-.73,.73-.73h11.73c.4,0,.73,.33,.73,.73v2.25c.07,.4-.27,.73-.73,.73Z"/>
              <path class="cls-12" d="M110.38,88.64c-.4,0-.66-.26-.66-.66s.26-.66,.66-.66h22.6c.4,0,.66,.26,.66,.66s-.27,.66-.66,.66h-22.6Z"/>
              <path class="cls-12" d="M110.38,93.35c-.4,0-.66-.26-.66-.66s.26-.66,.66-.66h36.85c.4,0,.66,.26,.66,.66s-.27,.66-.66,.66h-36.85Z"/>
              <path class="cls-12" d="M138.01,88.64c-.4,0-.66-.26-.66-.66s.27-.66,.66-.66h22.6c.4,0,.66,.26,.66,.66s-.27,.66-.66,.66h-22.6Z"/>
            </g>
            <path class="cls-13" d="M103.75,157.4h-14.85c-1.66,0-3.05-1.32-3.05-3.05v-14.84c0-1.66,1.33-3.05,3.05-3.05h14.85c1.66,0,3.05,1.32,3.05,3.05v14.84c0,1.72-1.39,3.05-3.05,3.05Z"/>
            <g class="cls-10">
              <path class="cls-12" d="M100.84,147.13c0,2.52-1.99,4.5-4.51,4.5s-4.51-1.99-4.51-4.5,1.99-4.5,4.51-4.5,4.51,1.99,4.51,4.5Z"/>
            </g>
            <g class="cls-3">
              <path class="cls-12" d="M122.9,143.55h-11.73c-.4,0-.73-.33-.73-.73v-2.25c0-.4,.33-.73,.73-.73h11.73c.4,0,.73,.33,.73,.73v2.25c0,.4-.33,.73-.73,.73Z"/>
              <path class="cls-12" d="M110.38,149.32c-.4,0-.66-.26-.66-.66s.26-.66,.66-.66h22.6c.4,0,.66,.26,.66,.66s-.27,.66-.66,.66h-22.6Z"/>
              <path class="cls-12" d="M110.38,154.02c-.4,0-.66-.26-.66-.66s.26-.66,.66-.66h36.85c.4,0,.66,.26,.66,.66s-.27,.66-.66,.66h-36.85Z"/>
              <path class="cls-12" d="M138.08,149.32c-.4,0-.66-.26-.66-.66s.27-.66,.66-.66h22.6c.4,0,.66,.26,.66,.66s-.27,.66-.66,.66h-22.6Z"/>
            </g>
            <path class="cls-11" d="M103.75,126.99h-14.85c-1.66,0-3.05-1.33-3.05-3.05v-14.84c0-1.66,1.33-3.05,3.05-3.05h14.85c1.66,0,3.05,1.32,3.05,3.05v14.84c-.07,1.72-1.39,3.05-3.05,3.05Z"/>
            <path class="cls-2" d="M96.33,121.23c2.49,0,4.51-2.02,4.51-4.5s-2.02-4.5-4.51-4.5-4.51,2.02-4.51,4.5,2.02,4.5,4.51,4.5Z"/>
            <g class="cls-3">
              <path class="cls-12" d="M122.9,113.15h-11.73c-.4,0-.73-.33-.73-.73v-2.25c0-.4,.33-.73,.73-.73h11.73c.4,0,.73,.33,.73,.73v2.25c0,.4-.33,.73-.73,.73Z"/>
              <path class="cls-12" d="M110.38,118.91c-.4,0-.66-.26-.66-.66s.26-.66,.66-.66h10.47c.4,0,.66,.26,.66,.66s-.26,.66-.66,.66h-10.47Z"/>
              <path class="cls-12" d="M110.38,123.62c-.4,0-.66-.26-.66-.66s.26-.66,.66-.66h21.47c.4,0,.66,.26,.66,.66s-.27,.66-.66,.66c0,0-21.47,0-21.47,0Z"/>
              <path class="cls-12" d="M125.22,118.91c-.4,0-.66-.26-.66-.66s.27-.66,.66-.66h20.88c.4,0,.66,.26,.66,.66s-.27,.66-.66,.66h-20.88Z"/>
              <path class="cls-12" d="M150.01,118.91c-.4,0-.66-.26-.66-.66s.27-.66,.66-.66h10.47c.4,0,.66,.26,.66,.66s-.27,.66-.66,.66h-10.47Z"/>
            </g>
          </g>
        </g>
      </g>
    </g>
  </g>
</svg>